%TF.GenerationSoftware,KiCad,Pcbnew,10.0.6*%
%TF.CreationDate,2026-09-04T06:49:35+03:00*%
%TF.ProjectId,pcb,7063622e-6b69-4636-9164-5f7063625858,rev?*%
%TF.SameCoordinates,Original*%
%TF.FileFunction,Copper,L1,Top*%
%TF.FilePolarity,Positive*%
%FSLAX46Y46*%
G04 Gerber Fmt 4.6, Leading zero omitted, Abs format (unit mm)*
G04 Created by KiCad (PCBNEW 10.0.6) date 2026-09-04 06:49:35*
%MOMM*%
%LPD*%
G01*
G04 APERTURE LIST*
G04 Aperture macros list*
%AMRoundRect*
0 Rectangle with rounded corners*
0 $1 Rounding radius*
0 $2 $3 $4 $5 $6 $7 $8 $9 X,Y pos of 4 corners*
0 Add a 4 corners polygon primitive as box body*
4,1,4,$2,$3,$4,$5,$6,$7,$8,$9,$2,$3,0*
0 Add four circle primitives for the rounded corners*
1,1,$1+$1,$2,$3*
1,1,$1+$1,$4,$5*
1,1,$1+$1,$6,$7*
1,1,$1+$1,$8,$9*
0 Add four rect primitives between the rounded corners*
20,1,$1+$1,$2,$3,$4,$5,0*
20,1,$1+$1,$4,$5,$6,$7,0*
20,1,$1+$1,$6,$7,$8,$9,0*
20,1,$1+$1,$8,$9,$2,$3,0*%
G04 Aperture macros list end*
%TA.AperFunction,ComponentPad*%
%ADD10C,2.000000*%
%TD*%
%TA.AperFunction,ComponentPad*%
%ADD11C,1.600000*%
%TD*%
%TA.AperFunction,ComponentPad*%
%ADD12RoundRect,0.250000X-0.550000X-0.550000X0.550000X-0.550000X0.550000X0.550000X-0.550000X0.550000X0*%
%TD*%
%TA.AperFunction,ComponentPad*%
%ADD13R,1.800000X1.800000*%
%TD*%
%TA.AperFunction,ComponentPad*%
%ADD14C,1.800000*%
%TD*%
%TA.AperFunction,SMDPad,CuDef*%
%ADD15R,1.270000X5.080000*%
%TD*%
%TA.AperFunction,SMDPad,CuDef*%
%ADD16C,17.800000*%
%TD*%
%TA.AperFunction,ViaPad*%
%ADD17C,0.600000*%
%TD*%
%TA.AperFunction,Conductor*%
%ADD18C,0.200000*%
%TD*%
G04 APERTURE END LIST*
D10*
%TO.P,ON1,2,2_2*%
%TO.N,3Volt*%
X131699000Y-105719000D03*
X125199000Y-105719000D03*
%TO.P,ON1,1,1_1*%
%TO.N,GND*%
X131699000Y-101219000D03*
X125199000Y-101219000D03*
%TD*%
D11*
%TO.P,U1,8,VCC_8*%
%TO.N,3Volt*%
X144780000Y-101473000D03*
%TO.P,U1,7,DIS_7*%
%TO.N,unconnected-(U1-DIS-Pad7)*%
X144780000Y-104013000D03*
%TO.P,U1,6,THR_6*%
%TO.N,unconnected-(U1-THR-Pad6)*%
X144780000Y-106553000D03*
%TO.P,U1,5,cv_5*%
%TO.N,unconnected-(U1-cv-Pad5)*%
X144780000Y-109093000D03*
%TO.P,U1,4,R_4*%
%TO.N,Net-(U1-R)*%
X137160000Y-109093000D03*
%TO.P,U1,3,Q_3*%
%TO.N,Net-(U1-Q)*%
X137160000Y-106553000D03*
%TO.P,U1,2,TR_2*%
%TO.N,3Volt*%
X137160000Y-104013000D03*
D12*
%TO.P,U1,1,GND_1*%
%TO.N,GND*%
X137160000Y-101473000D03*
%TD*%
D10*
%TO.P,OFF1,2,2_2*%
%TO.N,Net-(U1-R)*%
X181864000Y-103179000D03*
X175364000Y-103179000D03*
%TO.P,OFF1,1,1_1*%
%TO.N,GND*%
X181864000Y-98679000D03*
X175364000Y-98679000D03*
%TD*%
D11*
%TO.P,R3,2*%
%TO.N,3Volt*%
X133223000Y-111252000D03*
%TO.P,R3,1*%
X125603000Y-111252000D03*
%TD*%
%TO.P,R2,1*%
%TO.N,Net-(U1-Q)*%
X132334000Y-95885000D03*
%TO.P,R2,2*%
%TO.N,Net-(D1-A)*%
X124714000Y-95885000D03*
%TD*%
%TO.P,R1,1*%
%TO.N,3Volt*%
X187071000Y-101346000D03*
%TO.P,R1,2*%
%TO.N,Net-(U1-R)*%
X194691000Y-101346000D03*
%TD*%
D13*
%TO.P,D1,1,K_1*%
%TO.N,GND*%
X111760000Y-102870000D03*
D14*
%TO.P,D1,2,A_2*%
%TO.N,Net-(D1-A)*%
X114300000Y-102870000D03*
%TD*%
D15*
%TO.P,BT1,1,+_1*%
%TO.N,3Volt*%
X149416000Y-102743000D03*
X171386000Y-102743000D03*
D16*
%TO.P,BT1,2,-_2*%
%TO.N,GND*%
X160401000Y-102743000D03*
%TD*%
D17*
%TO.N,Net-(U1-Q)*%
X135382000Y-97663000D03*
%TO.N,Net-(U1-R)*%
X149606000Y-113411000D03*
%TD*%
%TO.N,3Volt*%
D18*
X171386000Y-104768765D02*
X171386000Y-102743000D01*
X155876000Y-111943000D02*
X164211765Y-111943000D01*
X149416000Y-105483000D02*
X155876000Y-111943000D01*
X149416000Y-102743000D02*
X149416000Y-105483000D01*
X164211765Y-111943000D02*
X171386000Y-104768765D01*
X144780000Y-101473000D02*
X148146000Y-101473000D01*
X148146000Y-101473000D02*
X149416000Y-102743000D01*
%TO.N,Net-(U1-Q)*%
X133604000Y-95885000D02*
X135382000Y-97663000D01*
X132334000Y-95885000D02*
X133604000Y-95885000D01*
%TO.N,Net-(D1-A)*%
X117729000Y-102870000D02*
X124714000Y-95885000D01*
X114300000Y-102870000D02*
X117729000Y-102870000D01*
%TO.N,GND*%
X152051640Y-94393640D02*
X160401000Y-102743000D01*
X111760000Y-102803924D02*
X119105058Y-95458866D01*
X122478411Y-94393640D02*
X152051640Y-94393640D01*
X119105058Y-95458866D02*
X122478411Y-94393640D01*
X111760000Y-102870000D02*
X111760000Y-102803924D01*
%TO.N,Net-(U1-R)*%
X175314574Y-103179000D02*
X165082574Y-113411000D01*
X165082574Y-113411000D02*
X149606000Y-113411000D01*
X185674000Y-103179000D02*
X175314574Y-103179000D01*
X185674000Y-103179000D02*
X192858000Y-103179000D01*
%TO.N,3Volt*%
X172783000Y-101346000D02*
X171386000Y-102743000D01*
X187071000Y-101346000D02*
X172783000Y-101346000D01*
%TO.N,Net-(U1-R)*%
X192858000Y-103179000D02*
X194691000Y-101346000D01*
X181864000Y-103179000D02*
X185674000Y-103179000D01*
%TO.N,3Volt*%
X147320000Y-113792000D02*
X149416000Y-111696000D01*
X125730000Y-113792000D02*
X147320000Y-113792000D01*
X125603000Y-113665000D02*
X125730000Y-113792000D01*
X149416000Y-111696000D02*
X149416000Y-102743000D01*
X125603000Y-111252000D02*
X125603000Y-113665000D01*
X137160000Y-104013000D02*
X142240000Y-104013000D01*
X142240000Y-104013000D02*
X144780000Y-101473000D01*
X133930000Y-107243000D02*
X137160000Y-104013000D01*
X133223000Y-107243000D02*
X133930000Y-107243000D01*
X133223000Y-107243000D02*
X133223000Y-111252000D01*
X131699000Y-105719000D02*
X133223000Y-107243000D01*
%TO.N,GND*%
X175364000Y-98679000D02*
X164465000Y-98679000D01*
X164465000Y-98679000D02*
X160401000Y-102743000D01*
%TO.N,Net-(U1-R)*%
X175364000Y-103179000D02*
X181864000Y-103179000D01*
%TO.N,GND*%
X175364000Y-98679000D02*
X181864000Y-98679000D01*
X137668000Y-99314000D02*
X156972000Y-99314000D01*
X156972000Y-99314000D02*
X160401000Y-102743000D01*
X137160000Y-99822000D02*
X137668000Y-99314000D01*
X137160000Y-101473000D02*
X137160000Y-99822000D01*
X156083000Y-98425000D02*
X160401000Y-102743000D01*
X134239000Y-98679000D02*
X134239000Y-98425000D01*
X131699000Y-101219000D02*
X134239000Y-98679000D01*
X134239000Y-98425000D02*
X156083000Y-98425000D01*
%TO.N,3Volt*%
X125199000Y-105719000D02*
X131699000Y-105719000D01*
%TO.N,GND*%
X125199000Y-101219000D02*
X131699000Y-101219000D01*
%TD*%
M02*
