%TF.GenerationSoftware,KiCad,Pcbnew,10.0.6*%
%TF.CreationDate,2026-09-04T06:49:35+03:00*%
%TF.ProjectId,pcb,7063622e-6b69-4636-9164-5f7063625858,rev?*%
%TF.SameCoordinates,Original*%
%TF.FileFunction,Legend,Bot*%
%TF.FilePolarity,Positive*%
%FSLAX46Y46*%
G04 Gerber Fmt 4.6, Leading zero omitted, Abs format (unit mm)*
G04 Created by KiCad (PCBNEW 10.0.6) date 2026-09-04 06:49:35*
%MOMM*%
%LPD*%
G01*
G04 APERTURE LIST*
%ADD10C,0.000000*%
G04 APERTURE END LIST*
D10*
%TO.C,G\u002A\u002A\u002A*%
G36*
X175922657Y-102875101D02*
G01*
X176143721Y-103663214D01*
X176193055Y-103839092D01*
X176286897Y-104213665D01*
X176361890Y-104526470D01*
X176409341Y-104740531D01*
X176421686Y-104823284D01*
X176372247Y-104823434D01*
X176195196Y-104805184D01*
X175937333Y-104770540D01*
X175666526Y-104739512D01*
X175101690Y-104707073D01*
X174454939Y-104699960D01*
X173780106Y-104717345D01*
X173131026Y-104758404D01*
X172561533Y-104822310D01*
X172007208Y-104910718D01*
X170901197Y-105122152D01*
X169659524Y-105400689D01*
X168277726Y-105747417D01*
X167327838Y-106006304D01*
X166751339Y-106163426D01*
X165075900Y-106649807D01*
X164684197Y-106766488D01*
X163899157Y-106999878D01*
X163245243Y-107193348D01*
X162700891Y-107353046D01*
X162244537Y-107485118D01*
X161854617Y-107595713D01*
X161509568Y-107690975D01*
X161187824Y-107777054D01*
X160867823Y-107860096D01*
X160528000Y-107946247D01*
X159651037Y-108157852D01*
X157539677Y-108588983D01*
X155474757Y-108894760D01*
X153416000Y-109081612D01*
X152832176Y-109115088D01*
X151828646Y-109153680D01*
X150947887Y-109157701D01*
X150161371Y-109125632D01*
X149440570Y-109055955D01*
X148756955Y-108947151D01*
X148082000Y-108797701D01*
X147956790Y-108765812D01*
X146500347Y-108318223D01*
X144991961Y-107716208D01*
X143430616Y-106959156D01*
X141815293Y-106046457D01*
X141267976Y-105696190D01*
X146134667Y-105696190D01*
X146134710Y-105701833D01*
X146188597Y-105872958D01*
X146356653Y-106021506D01*
X146657144Y-106158723D01*
X147108333Y-106295860D01*
X147455186Y-106381965D01*
X148002260Y-106489484D01*
X148438737Y-106535404D01*
X148749385Y-106518532D01*
X148918976Y-106437676D01*
X148940456Y-106385599D01*
X149841508Y-106385599D01*
X149883481Y-106630890D01*
X150042511Y-106857339D01*
X150344114Y-107031782D01*
X150509103Y-107085545D01*
X150922025Y-107138317D01*
X151351405Y-107109218D01*
X151713871Y-107000172D01*
X151916709Y-106860242D01*
X152188489Y-106547828D01*
X152417648Y-106139984D01*
X152575972Y-105679923D01*
X152632362Y-105363231D01*
X152673131Y-104842271D01*
X152671301Y-104286347D01*
X152627793Y-103761974D01*
X152543528Y-103335667D01*
X152441677Y-103055406D01*
X152198431Y-102643166D01*
X151893894Y-102346028D01*
X151578079Y-102187153D01*
X155010733Y-102187153D01*
X155034676Y-102390148D01*
X155110225Y-102594507D01*
X155253709Y-102830511D01*
X155481456Y-103128442D01*
X155809796Y-103518579D01*
X155946920Y-103679214D01*
X156096837Y-103870626D01*
X156161152Y-104000305D01*
X156156302Y-104109197D01*
X156098725Y-104238246D01*
X155995898Y-104471706D01*
X155868566Y-104824439D01*
X155862975Y-104842271D01*
X155743790Y-105222430D01*
X155636357Y-105614941D01*
X155561054Y-105951235D01*
X155532667Y-106180575D01*
X155569399Y-106457956D01*
X155661841Y-106726538D01*
X155703846Y-106801046D01*
X155847281Y-106940564D01*
X156070416Y-106976333D01*
X156154514Y-106973075D01*
X156364332Y-106919366D01*
X156529220Y-106782954D01*
X156662621Y-106542237D01*
X156777976Y-106175616D01*
X156888729Y-105661493D01*
X156950214Y-105342315D01*
X157020133Y-104991288D01*
X157075801Y-104725071D01*
X157108873Y-104584500D01*
X157108956Y-104584219D01*
X157193762Y-104448715D01*
X157314738Y-104471223D01*
X157464270Y-104646192D01*
X157634748Y-104968068D01*
X157776711Y-105251589D01*
X158040087Y-105661135D01*
X158319600Y-105976952D01*
X158597685Y-106187103D01*
X158856777Y-106279652D01*
X159079312Y-106242663D01*
X159247725Y-106064199D01*
X159266688Y-106006304D01*
X159258927Y-105872011D01*
X159196526Y-105664874D01*
X159071087Y-105359397D01*
X158874215Y-104930082D01*
X158699641Y-104546619D01*
X158458711Y-103938250D01*
X158291999Y-103370107D01*
X158182926Y-102780565D01*
X158114911Y-102108000D01*
X158088649Y-101793687D01*
X158028660Y-101336282D01*
X157948500Y-101017277D01*
X157848884Y-100829250D01*
X158887739Y-100829250D01*
X158943767Y-101128317D01*
X158991299Y-101207503D01*
X159185319Y-101351582D01*
X159418341Y-101359260D01*
X159635373Y-101223007D01*
X159667026Y-101190935D01*
X159909383Y-101066633D01*
X160178657Y-101083451D01*
X160419020Y-101240167D01*
X160546690Y-101397967D01*
X160811630Y-101861879D01*
X161020036Y-102423697D01*
X161156430Y-103035961D01*
X161205333Y-103651215D01*
X161198650Y-103986123D01*
X161170153Y-104203752D01*
X161107291Y-104352483D01*
X160997515Y-104482515D01*
X160820298Y-104615018D01*
X160495563Y-104690333D01*
X160317598Y-104708181D01*
X160077816Y-104820898D01*
X159956900Y-105007586D01*
X159959812Y-105233409D01*
X160091515Y-105463533D01*
X160356972Y-105663123D01*
X160741335Y-105781675D01*
X161162594Y-105753850D01*
X161572638Y-105575649D01*
X161944178Y-105254103D01*
X161989608Y-105200481D01*
X162192193Y-104887316D01*
X162324196Y-104514758D01*
X162394651Y-104048052D01*
X162412594Y-103452443D01*
X162375949Y-102907287D01*
X162240424Y-102210873D01*
X162018380Y-101551859D01*
X161723774Y-100962528D01*
X161370564Y-100475162D01*
X161268340Y-100384433D01*
X163044710Y-100384433D01*
X163066115Y-101029898D01*
X163127251Y-101713756D01*
X163228024Y-102404333D01*
X163314938Y-102876551D01*
X163429205Y-103415416D01*
X163439262Y-103452443D01*
X163540857Y-103826499D01*
X163657880Y-104133659D01*
X163788260Y-104360759D01*
X163939981Y-104531660D01*
X164001450Y-104583814D01*
X164276737Y-104736393D01*
X164539118Y-104768850D01*
X164744400Y-104673400D01*
X164787645Y-104613973D01*
X164840548Y-104365561D01*
X164803073Y-104003013D01*
X164676448Y-103546696D01*
X164600043Y-103315452D01*
X164542267Y-103118794D01*
X164528281Y-103036663D01*
X164593285Y-103023179D01*
X164785866Y-102997428D01*
X165057667Y-102967180D01*
X165565667Y-102914918D01*
X165794504Y-103293440D01*
X165874626Y-103412902D01*
X166089937Y-103664844D01*
X166302504Y-103842165D01*
X166460761Y-103936793D01*
X166601682Y-103998486D01*
X166704876Y-103983547D01*
X166832728Y-103898619D01*
X166927262Y-103799505D01*
X166968693Y-103663214D01*
X166949796Y-103472829D01*
X166864742Y-103210415D01*
X166707700Y-102858039D01*
X166472842Y-102397768D01*
X166154338Y-101811667D01*
X165887315Y-101326369D01*
X165619519Y-100834924D01*
X165377405Y-100386041D01*
X165179908Y-100014826D01*
X165045960Y-99756389D01*
X165043884Y-99752270D01*
X164736777Y-99220319D01*
X164424263Y-98823908D01*
X164115691Y-98570723D01*
X163965875Y-98518833D01*
X166585605Y-98518833D01*
X166611922Y-98736815D01*
X166677007Y-99050205D01*
X166784994Y-99492635D01*
X166795765Y-99535033D01*
X166926131Y-100022892D01*
X167088305Y-100596461D01*
X167262678Y-101187725D01*
X167429642Y-101728667D01*
X167549433Y-102100341D01*
X167682907Y-102488923D01*
X167795046Y-102769049D01*
X167900476Y-102972065D01*
X168013820Y-103129322D01*
X168149703Y-103272167D01*
X168245570Y-103358926D01*
X168545384Y-103548189D01*
X168804590Y-103573448D01*
X169023878Y-103434833D01*
X169031546Y-103426225D01*
X169113305Y-103300821D01*
X169151736Y-103139074D01*
X169146305Y-102909291D01*
X169096480Y-102579778D01*
X169001726Y-102118843D01*
X168839451Y-101376264D01*
X169192226Y-101225806D01*
X169546157Y-101083103D01*
X169886601Y-100965975D01*
X170127985Y-100907635D01*
X170243789Y-100915900D01*
X170259904Y-100937575D01*
X170345995Y-101081216D01*
X170480349Y-101322245D01*
X170641678Y-101622838D01*
X170674302Y-101684312D01*
X170854019Y-102000529D01*
X171007712Y-102209767D01*
X171171623Y-102353692D01*
X171381993Y-102473971D01*
X171573687Y-102556604D01*
X171860509Y-102603177D01*
X172069763Y-102507636D01*
X172216191Y-102266310D01*
X172235725Y-102211179D01*
X172259867Y-102101852D01*
X172259578Y-101970587D01*
X172229442Y-101789511D01*
X172164045Y-101530748D01*
X172057970Y-101166425D01*
X171905803Y-100668667D01*
X171784473Y-100254242D01*
X171634794Y-99702977D01*
X171487515Y-99125264D01*
X171361840Y-98594333D01*
X171258686Y-98153690D01*
X171149539Y-97757367D01*
X171044182Y-97481043D01*
X170929769Y-97299027D01*
X170793458Y-97185625D01*
X170622404Y-97115144D01*
X170511725Y-97101103D01*
X170350805Y-97163802D01*
X170143157Y-97344243D01*
X170065816Y-97427582D01*
X169821369Y-97829527D01*
X169701773Y-98327328D01*
X169703448Y-98933931D01*
X169754088Y-99485195D01*
X169265204Y-99674764D01*
X169034108Y-99760822D01*
X168812023Y-99835227D01*
X168694993Y-99863553D01*
X168663797Y-99839842D01*
X168566419Y-99695055D01*
X168431945Y-99447925D01*
X168279682Y-99132436D01*
X168212952Y-98991789D01*
X168023999Y-98634770D01*
X167834537Y-98325022D01*
X167677018Y-98117216D01*
X167617495Y-98058070D01*
X167330714Y-97873330D01*
X167054098Y-97843820D01*
X166812544Y-97966641D01*
X166630946Y-98238899D01*
X166593926Y-98362630D01*
X166585605Y-98518833D01*
X163965875Y-98518833D01*
X163820410Y-98468450D01*
X163547771Y-98524774D01*
X163487660Y-98573058D01*
X163349131Y-98754661D01*
X163217663Y-99000083D01*
X163121483Y-99335394D01*
X163063134Y-99809040D01*
X163044710Y-100384433D01*
X161268340Y-100384433D01*
X160972705Y-100122042D01*
X160883805Y-100064763D01*
X160638948Y-99938113D01*
X160389713Y-99878953D01*
X160054314Y-99864333D01*
X159918832Y-99865739D01*
X159642527Y-99889143D01*
X159446633Y-99955145D01*
X159266973Y-100081442D01*
X159152204Y-100194351D01*
X158962700Y-100500170D01*
X158887739Y-100829250D01*
X157848884Y-100829250D01*
X157842334Y-100816886D01*
X157704329Y-100715318D01*
X157665980Y-100703298D01*
X157413685Y-100716346D01*
X157263651Y-100801042D01*
X157164124Y-100857226D01*
X156969006Y-101098957D01*
X156911832Y-101282277D01*
X156871771Y-101608045D01*
X156861031Y-102007037D01*
X156880699Y-102428808D01*
X156931862Y-102822911D01*
X156985831Y-103114488D01*
X156449749Y-102648288D01*
X156386831Y-102593691D01*
X156035110Y-102296019D01*
X155774216Y-102094931D01*
X155576482Y-101972943D01*
X155414242Y-101912572D01*
X155259828Y-101896333D01*
X155086104Y-101927392D01*
X155014917Y-102044500D01*
X155010733Y-102187153D01*
X151578079Y-102187153D01*
X151550490Y-102173274D01*
X151190642Y-102134192D01*
X150836773Y-102238065D01*
X150511308Y-102494178D01*
X150362399Y-102706626D01*
X150355671Y-102729240D01*
X150288258Y-102955810D01*
X150321459Y-103160884D01*
X150445679Y-103291868D01*
X150644599Y-103318783D01*
X150901898Y-103211650D01*
X151015462Y-103154614D01*
X151273327Y-103140740D01*
X151507004Y-103275101D01*
X151684429Y-103544075D01*
X151785234Y-103937305D01*
X151802700Y-104401355D01*
X151743412Y-104884286D01*
X151616523Y-105340251D01*
X151431184Y-105723402D01*
X151196550Y-105987894D01*
X151079541Y-106067134D01*
X150945741Y-106113773D01*
X150771416Y-106104754D01*
X150495299Y-106045072D01*
X150464355Y-106037749D01*
X150145968Y-105984398D01*
X149953570Y-106015453D01*
X149860853Y-106144620D01*
X149841508Y-106385599D01*
X148940456Y-106385599D01*
X148969039Y-106316300D01*
X149030701Y-106059334D01*
X149092908Y-105709330D01*
X149147763Y-105305379D01*
X149192514Y-104931376D01*
X149240167Y-104556333D01*
X149280306Y-104264200D01*
X149307292Y-104097667D01*
X149342399Y-103907561D01*
X149396255Y-103516729D01*
X149434382Y-103108589D01*
X149453851Y-102729240D01*
X149451738Y-102424786D01*
X149425117Y-102241326D01*
X149311949Y-102031677D01*
X149138981Y-101882990D01*
X148959639Y-101870075D01*
X148871877Y-101942053D01*
X148832121Y-101974659D01*
X148685696Y-102244686D01*
X148554393Y-102656481D01*
X148441933Y-103194947D01*
X148352040Y-103844989D01*
X148288437Y-104591511D01*
X148277786Y-104754245D01*
X148244867Y-105142981D01*
X148207084Y-105396606D01*
X148159577Y-105540826D01*
X148097485Y-105601352D01*
X148058676Y-105608225D01*
X147866485Y-105601164D01*
X147574125Y-105564137D01*
X147227846Y-105502406D01*
X147028584Y-105464811D01*
X146615905Y-105414919D01*
X146338955Y-105435151D01*
X146183340Y-105528057D01*
X146134667Y-105696190D01*
X141267976Y-105696190D01*
X140144976Y-104977502D01*
X138418646Y-103751678D01*
X137112517Y-102738551D01*
X140123333Y-102738551D01*
X140183386Y-103037111D01*
X140392808Y-103381173D01*
X140733059Y-103699302D01*
X141183928Y-103968068D01*
X141400780Y-104056318D01*
X141729139Y-104145268D01*
X142028209Y-104180865D01*
X142255629Y-104159234D01*
X142369040Y-104076500D01*
X142369676Y-104074743D01*
X142407271Y-103956724D01*
X142462566Y-103776597D01*
X143511860Y-103776597D01*
X143521702Y-104033973D01*
X143608942Y-104551668D01*
X143780123Y-104957264D01*
X144027677Y-105229448D01*
X144055311Y-105247118D01*
X144325882Y-105336695D01*
X144677899Y-105362290D01*
X145045415Y-105324231D01*
X145362483Y-105222844D01*
X145598689Y-105070171D01*
X145822477Y-104827905D01*
X146023997Y-104484545D01*
X146216224Y-104017619D01*
X146412132Y-103404654D01*
X146453364Y-103262096D01*
X146608269Y-102694454D01*
X146705873Y-102261122D01*
X146747628Y-101942053D01*
X146734986Y-101717200D01*
X146669400Y-101566519D01*
X146552323Y-101469961D01*
X146473690Y-101435509D01*
X146275920Y-101434484D01*
X146103045Y-101578896D01*
X145948204Y-101876693D01*
X145804533Y-102335822D01*
X145753246Y-102533477D01*
X145583500Y-103174841D01*
X145443407Y-103672772D01*
X145325539Y-104044108D01*
X145222467Y-104305686D01*
X145126764Y-104474344D01*
X145031003Y-104566919D01*
X144927755Y-104600249D01*
X144809593Y-104591171D01*
X144698669Y-104543567D01*
X144555523Y-104342405D01*
X144482347Y-103998690D01*
X144479535Y-103520057D01*
X144547476Y-102914141D01*
X144686562Y-102188577D01*
X144704454Y-102105248D01*
X144762128Y-101771027D01*
X144787941Y-101498587D01*
X144776491Y-101338971D01*
X144691946Y-101175339D01*
X144517499Y-101039254D01*
X144316074Y-101049997D01*
X144113541Y-101202829D01*
X143935765Y-101493010D01*
X143887533Y-101611738D01*
X143740140Y-102091383D01*
X143620362Y-102655360D01*
X143540251Y-103238741D01*
X143511860Y-103776597D01*
X142462566Y-103776597D01*
X142484607Y-103704796D01*
X142593450Y-103346086D01*
X142725567Y-102907723D01*
X142872725Y-102416838D01*
X142955285Y-102138543D01*
X143102251Y-101624550D01*
X143201079Y-101243119D01*
X143256010Y-100975024D01*
X143271288Y-100801042D01*
X143251155Y-100701947D01*
X143229850Y-100670625D01*
X143062237Y-100526516D01*
X142791321Y-100359590D01*
X142462678Y-100193450D01*
X142121887Y-100051700D01*
X141814524Y-99957945D01*
X141749153Y-99944503D01*
X141355426Y-99932093D01*
X141056256Y-100059537D01*
X140849850Y-100327523D01*
X140751200Y-100582222D01*
X140726145Y-100871008D01*
X140808544Y-101205203D01*
X140822354Y-101245722D01*
X140856110Y-101411849D01*
X140802269Y-101537845D01*
X140636170Y-101693589D01*
X140423241Y-101904297D01*
X140196920Y-102291335D01*
X140123333Y-102738551D01*
X137112517Y-102738551D01*
X136635287Y-102368377D01*
X134793881Y-100826988D01*
X134620476Y-100675498D01*
X134305291Y-100392938D01*
X134051884Y-100156111D01*
X133882708Y-99986284D01*
X133820214Y-99904723D01*
X133826182Y-99896791D01*
X133951789Y-99869756D01*
X134231096Y-99845862D01*
X134651865Y-99825740D01*
X135201857Y-99810019D01*
X135868833Y-99799328D01*
X136284903Y-99793627D01*
X136812877Y-99782901D01*
X137263591Y-99769663D01*
X137614029Y-99754765D01*
X137841171Y-99739058D01*
X137922000Y-99723394D01*
X137908111Y-99687215D01*
X137828891Y-99519620D01*
X137688972Y-99236482D01*
X137499189Y-98859428D01*
X137270379Y-98410084D01*
X137013379Y-97910076D01*
X136854776Y-97599841D01*
X136619705Y-97127566D01*
X136423740Y-96718150D01*
X136276900Y-96393298D01*
X136189202Y-96174718D01*
X136170664Y-96084114D01*
X136266653Y-96088110D01*
X136464655Y-96164154D01*
X136719452Y-96296423D01*
X137101789Y-96507757D01*
X137752558Y-96841382D01*
X138483376Y-97192383D01*
X139247011Y-97538899D01*
X139996230Y-97859075D01*
X140683802Y-98131050D01*
X141131666Y-98295294D01*
X143117964Y-98928918D01*
X145075309Y-99396534D01*
X147005927Y-99698418D01*
X148912042Y-99834844D01*
X150795880Y-99806089D01*
X152659666Y-99612426D01*
X153156483Y-99532577D01*
X154157169Y-99331000D01*
X155139694Y-99072520D01*
X156141976Y-98745324D01*
X157201936Y-98337602D01*
X158357491Y-97837540D01*
X159685897Y-97256484D01*
X161350446Y-96592421D01*
X162917328Y-96045902D01*
X164397551Y-95614147D01*
X165802122Y-95294375D01*
X167142049Y-95083804D01*
X168428339Y-94979655D01*
X169672000Y-94979146D01*
X169674349Y-94979242D01*
X170516997Y-95034444D01*
X171242928Y-95130165D01*
X171901596Y-95274992D01*
X172542455Y-95477511D01*
X173084576Y-95673333D01*
X173583387Y-96773230D01*
X173658706Y-96940071D01*
X174195663Y-98174414D01*
X174701765Y-99415490D01*
X175165784Y-100632898D01*
X175576491Y-101796235D01*
X175674552Y-102101852D01*
X175922657Y-102875101D01*
G37*
G36*
X164099663Y-100192598D02*
G01*
X164281169Y-100403364D01*
X164539211Y-100763204D01*
X164689008Y-100987498D01*
X164856949Y-101253439D01*
X164964339Y-101442472D01*
X164992791Y-101523765D01*
X164967370Y-101537403D01*
X164815250Y-101583380D01*
X164582526Y-101635476D01*
X164479033Y-101655724D01*
X164265085Y-101697009D01*
X164153206Y-101717723D01*
X164098558Y-101684852D01*
X164048235Y-101540453D01*
X164003639Y-101264455D01*
X163960642Y-100838000D01*
X163959961Y-100829979D01*
X163944353Y-100520746D01*
X163950929Y-100274303D01*
X163978347Y-100143357D01*
X163995221Y-100131489D01*
X164099663Y-100192598D01*
G37*
G36*
X141340795Y-102270982D02*
G01*
X141581121Y-102339889D01*
X141806092Y-102433246D01*
X141940702Y-102564573D01*
X141966811Y-102764402D01*
X141903050Y-103075291D01*
X141877110Y-103161590D01*
X141797444Y-103346600D01*
X141725364Y-103420333D01*
X141692425Y-103414632D01*
X141530007Y-103354766D01*
X141308125Y-103250723D01*
X141214231Y-103199181D01*
X140944396Y-102986225D01*
X140815751Y-102760925D01*
X140835194Y-102543956D01*
X141009621Y-102355992D01*
X141037334Y-102338176D01*
X141183794Y-102269727D01*
X141340795Y-102270982D01*
G37*
G36*
X142017190Y-100828873D02*
G01*
X142240639Y-100882290D01*
X142420299Y-100950451D01*
X142494000Y-101015892D01*
X142489172Y-101035955D01*
X142440983Y-101172384D01*
X142357807Y-101386620D01*
X142318948Y-101475948D01*
X142215725Y-101655566D01*
X142132966Y-101727000D01*
X142103456Y-101720633D01*
X141954283Y-101643639D01*
X141756308Y-101507324D01*
X141646195Y-101416529D01*
X141514960Y-101246959D01*
X141494316Y-101062824D01*
X141500907Y-101017453D01*
X141576317Y-100868453D01*
X141762268Y-100810331D01*
X141812119Y-100807666D01*
X142017190Y-100828873D01*
G37*
%TD*%
M02*
