%TF.GenerationSoftware,KiCad,Pcbnew,10.0.6*%
%TF.CreationDate,2026-09-04T18:50:50+03:00*%
%TF.ProjectId,pcb,7063622e-6b69-4636-9164-5f7063625858,rev?*%
%TF.SameCoordinates,Original*%
%TF.FileFunction,Legend,Bot*%
%TF.FilePolarity,Positive*%
%FSLAX46Y46*%
G04 Gerber Fmt 4.6, Leading zero omitted, Abs format (unit mm)*
G04 Created by KiCad (PCBNEW 10.0.6) date 2026-09-04 18:50:50*
%MOMM*%
%LPD*%
G01*
G04 APERTURE LIST*
%ADD10C,0.000000*%
G04 APERTURE END LIST*
D10*
%TO.C,G\u002A\u002A\u002A*%
G36*
X139689795Y-101000982D02*
G01*
X139930121Y-101069889D01*
X140155092Y-101163246D01*
X140289702Y-101294573D01*
X140315811Y-101494402D01*
X140252050Y-101805291D01*
X140226110Y-101891590D01*
X140146444Y-102076600D01*
X140074364Y-102150333D01*
X140041425Y-102144632D01*
X139879007Y-102084766D01*
X139657125Y-101980723D01*
X139563231Y-101929181D01*
X139293396Y-101716225D01*
X139164751Y-101490925D01*
X139184194Y-101273956D01*
X139358621Y-101085992D01*
X139386334Y-101068176D01*
X139532794Y-100999727D01*
X139689795Y-101000982D01*
G37*
G36*
X140366190Y-99558873D02*
G01*
X140589639Y-99612290D01*
X140769299Y-99680451D01*
X140843000Y-99745892D01*
X140838172Y-99765955D01*
X140789983Y-99902384D01*
X140706807Y-100116620D01*
X140667948Y-100205948D01*
X140564725Y-100385566D01*
X140481966Y-100457000D01*
X140452456Y-100450633D01*
X140303283Y-100373639D01*
X140105308Y-100237324D01*
X139995195Y-100146529D01*
X139863960Y-99976959D01*
X139843316Y-99792824D01*
X139849907Y-99747453D01*
X139925317Y-99598453D01*
X140111268Y-99540331D01*
X140161119Y-99537666D01*
X140366190Y-99558873D01*
G37*
G36*
X162448663Y-98922598D02*
G01*
X162630169Y-99133364D01*
X162888211Y-99493204D01*
X163038008Y-99717498D01*
X163205949Y-99983439D01*
X163313339Y-100172472D01*
X163341791Y-100253765D01*
X163316370Y-100267403D01*
X163164250Y-100313380D01*
X162931526Y-100365476D01*
X162828033Y-100385724D01*
X162614085Y-100427009D01*
X162502206Y-100447723D01*
X162447558Y-100414852D01*
X162397235Y-100270453D01*
X162352639Y-99994455D01*
X162309642Y-99568000D01*
X162308961Y-99559979D01*
X162293353Y-99250746D01*
X162299929Y-99004303D01*
X162327347Y-98873357D01*
X162344221Y-98861489D01*
X162448663Y-98922598D01*
G37*
G36*
X174271657Y-101605101D02*
G01*
X174492721Y-102393214D01*
X174542055Y-102569092D01*
X174635897Y-102943665D01*
X174710890Y-103256470D01*
X174758341Y-103470531D01*
X174770686Y-103553284D01*
X174721247Y-103553434D01*
X174544196Y-103535184D01*
X174286333Y-103500540D01*
X174015526Y-103469512D01*
X173450690Y-103437073D01*
X172803939Y-103429960D01*
X172129106Y-103447345D01*
X171480026Y-103488404D01*
X170910533Y-103552310D01*
X170356208Y-103640718D01*
X169250197Y-103852152D01*
X168008524Y-104130689D01*
X166626726Y-104477417D01*
X165676838Y-104736304D01*
X165100339Y-104893426D01*
X163424900Y-105379807D01*
X163033197Y-105496488D01*
X162248157Y-105729878D01*
X161594243Y-105923348D01*
X161049891Y-106083046D01*
X160593537Y-106215118D01*
X160203617Y-106325713D01*
X159858568Y-106420975D01*
X159536824Y-106507054D01*
X159216823Y-106590096D01*
X158877000Y-106676247D01*
X158000037Y-106887852D01*
X155888677Y-107318983D01*
X153823757Y-107624760D01*
X151765000Y-107811612D01*
X151181176Y-107845088D01*
X150177646Y-107883680D01*
X149296887Y-107887701D01*
X148510371Y-107855632D01*
X147789570Y-107785955D01*
X147105955Y-107677151D01*
X146431000Y-107527701D01*
X146305790Y-107495812D01*
X144849347Y-107048223D01*
X143340961Y-106446208D01*
X141779616Y-105689156D01*
X140164293Y-104776457D01*
X139616976Y-104426190D01*
X144483667Y-104426190D01*
X144483710Y-104431833D01*
X144537597Y-104602958D01*
X144705653Y-104751506D01*
X145006144Y-104888723D01*
X145457333Y-105025860D01*
X145804186Y-105111965D01*
X146351260Y-105219484D01*
X146787737Y-105265404D01*
X147098385Y-105248532D01*
X147267976Y-105167676D01*
X147289456Y-105115599D01*
X148190508Y-105115599D01*
X148232481Y-105360890D01*
X148391511Y-105587339D01*
X148693114Y-105761782D01*
X148858103Y-105815545D01*
X149271025Y-105868317D01*
X149700405Y-105839218D01*
X150062871Y-105730172D01*
X150265709Y-105590242D01*
X150537489Y-105277828D01*
X150766648Y-104869984D01*
X150924972Y-104409923D01*
X150981362Y-104093231D01*
X151022131Y-103572271D01*
X151020301Y-103016347D01*
X150976793Y-102491974D01*
X150892528Y-102065667D01*
X150790677Y-101785406D01*
X150547431Y-101373166D01*
X150242894Y-101076028D01*
X149927079Y-100917153D01*
X153359733Y-100917153D01*
X153383676Y-101120148D01*
X153459225Y-101324507D01*
X153602709Y-101560511D01*
X153830456Y-101858442D01*
X154158796Y-102248579D01*
X154295920Y-102409214D01*
X154445837Y-102600626D01*
X154510152Y-102730305D01*
X154505302Y-102839197D01*
X154447725Y-102968246D01*
X154344898Y-103201706D01*
X154217566Y-103554439D01*
X154211975Y-103572271D01*
X154092790Y-103952430D01*
X153985357Y-104344941D01*
X153910054Y-104681235D01*
X153881667Y-104910575D01*
X153918399Y-105187956D01*
X154010841Y-105456538D01*
X154052846Y-105531046D01*
X154196281Y-105670564D01*
X154419416Y-105706333D01*
X154503514Y-105703075D01*
X154713332Y-105649366D01*
X154878220Y-105512954D01*
X155011621Y-105272237D01*
X155126976Y-104905616D01*
X155237729Y-104391493D01*
X155299214Y-104072315D01*
X155369133Y-103721288D01*
X155424801Y-103455071D01*
X155457873Y-103314500D01*
X155457956Y-103314219D01*
X155542762Y-103178715D01*
X155663738Y-103201223D01*
X155813270Y-103376192D01*
X155983748Y-103698068D01*
X156125711Y-103981589D01*
X156389087Y-104391135D01*
X156668600Y-104706952D01*
X156946685Y-104917103D01*
X157205777Y-105009652D01*
X157428312Y-104972663D01*
X157596725Y-104794199D01*
X157615688Y-104736304D01*
X157607927Y-104602011D01*
X157545526Y-104394874D01*
X157420087Y-104089397D01*
X157223215Y-103660082D01*
X157048641Y-103276619D01*
X156807711Y-102668250D01*
X156640999Y-102100107D01*
X156531926Y-101510565D01*
X156463911Y-100838000D01*
X156437649Y-100523687D01*
X156377660Y-100066282D01*
X156297500Y-99747277D01*
X156197884Y-99559250D01*
X157236739Y-99559250D01*
X157292767Y-99858317D01*
X157340299Y-99937503D01*
X157534319Y-100081582D01*
X157767341Y-100089260D01*
X157984373Y-99953007D01*
X158016026Y-99920935D01*
X158258383Y-99796633D01*
X158527657Y-99813451D01*
X158768020Y-99970167D01*
X158895690Y-100127967D01*
X159160630Y-100591879D01*
X159369036Y-101153697D01*
X159505430Y-101765961D01*
X159554333Y-102381215D01*
X159547650Y-102716123D01*
X159519153Y-102933752D01*
X159456291Y-103082483D01*
X159346515Y-103212515D01*
X159169298Y-103345018D01*
X158844563Y-103420333D01*
X158666598Y-103438181D01*
X158426816Y-103550898D01*
X158305900Y-103737586D01*
X158308812Y-103963409D01*
X158440515Y-104193533D01*
X158705972Y-104393123D01*
X159090335Y-104511675D01*
X159511594Y-104483850D01*
X159921638Y-104305649D01*
X160293178Y-103984103D01*
X160338608Y-103930481D01*
X160541193Y-103617316D01*
X160673196Y-103244758D01*
X160743651Y-102778052D01*
X160761594Y-102182443D01*
X160724949Y-101637287D01*
X160589424Y-100940873D01*
X160367380Y-100281859D01*
X160072774Y-99692528D01*
X159719564Y-99205162D01*
X159617340Y-99114433D01*
X161393710Y-99114433D01*
X161415115Y-99759898D01*
X161476251Y-100443756D01*
X161577024Y-101134333D01*
X161663938Y-101606551D01*
X161778205Y-102145416D01*
X161788262Y-102182443D01*
X161889857Y-102556499D01*
X162006880Y-102863659D01*
X162137260Y-103090759D01*
X162288981Y-103261660D01*
X162350450Y-103313814D01*
X162625737Y-103466393D01*
X162888118Y-103498850D01*
X163093400Y-103403400D01*
X163136645Y-103343973D01*
X163189548Y-103095561D01*
X163152073Y-102733013D01*
X163025448Y-102276696D01*
X162949043Y-102045452D01*
X162891267Y-101848794D01*
X162877281Y-101766663D01*
X162942285Y-101753179D01*
X163134866Y-101727428D01*
X163406667Y-101697180D01*
X163914667Y-101644918D01*
X164143504Y-102023440D01*
X164223626Y-102142902D01*
X164438937Y-102394844D01*
X164651504Y-102572165D01*
X164809761Y-102666793D01*
X164950682Y-102728486D01*
X165053876Y-102713547D01*
X165181728Y-102628619D01*
X165276262Y-102529505D01*
X165317693Y-102393214D01*
X165298796Y-102202829D01*
X165213742Y-101940415D01*
X165056700Y-101588039D01*
X164821842Y-101127768D01*
X164503338Y-100541667D01*
X164236315Y-100056369D01*
X163968519Y-99564924D01*
X163726405Y-99116041D01*
X163528908Y-98744826D01*
X163394960Y-98486389D01*
X163392884Y-98482270D01*
X163085777Y-97950319D01*
X162773263Y-97553908D01*
X162464691Y-97300723D01*
X162314875Y-97248833D01*
X164934605Y-97248833D01*
X164960922Y-97466815D01*
X165026007Y-97780205D01*
X165133994Y-98222635D01*
X165144765Y-98265033D01*
X165275131Y-98752892D01*
X165437305Y-99326461D01*
X165611678Y-99917725D01*
X165778642Y-100458667D01*
X165898433Y-100830341D01*
X166031907Y-101218923D01*
X166144046Y-101499049D01*
X166249476Y-101702065D01*
X166362820Y-101859322D01*
X166498703Y-102002167D01*
X166594570Y-102088926D01*
X166894384Y-102278189D01*
X167153590Y-102303448D01*
X167372878Y-102164833D01*
X167380546Y-102156225D01*
X167462305Y-102030821D01*
X167500736Y-101869074D01*
X167495305Y-101639291D01*
X167445480Y-101309778D01*
X167350726Y-100848843D01*
X167188451Y-100106264D01*
X167541226Y-99955806D01*
X167895157Y-99813103D01*
X168235601Y-99695975D01*
X168476985Y-99637635D01*
X168592789Y-99645900D01*
X168608904Y-99667575D01*
X168694995Y-99811216D01*
X168829349Y-100052245D01*
X168990678Y-100352838D01*
X169023302Y-100414312D01*
X169203019Y-100730529D01*
X169356712Y-100939767D01*
X169520623Y-101083692D01*
X169730993Y-101203971D01*
X169922687Y-101286604D01*
X170209509Y-101333177D01*
X170418763Y-101237636D01*
X170565191Y-100996310D01*
X170584725Y-100941179D01*
X170608867Y-100831852D01*
X170608578Y-100700587D01*
X170578442Y-100519511D01*
X170513045Y-100260748D01*
X170406970Y-99896425D01*
X170254803Y-99398667D01*
X170133473Y-98984242D01*
X169983794Y-98432977D01*
X169836515Y-97855264D01*
X169710840Y-97324333D01*
X169607686Y-96883690D01*
X169498539Y-96487367D01*
X169393182Y-96211043D01*
X169278769Y-96029027D01*
X169142458Y-95915625D01*
X168971404Y-95845144D01*
X168860725Y-95831103D01*
X168699805Y-95893802D01*
X168492157Y-96074243D01*
X168414816Y-96157582D01*
X168170369Y-96559527D01*
X168050773Y-97057328D01*
X168052448Y-97663931D01*
X168103088Y-98215195D01*
X167614204Y-98404764D01*
X167383108Y-98490822D01*
X167161023Y-98565227D01*
X167043993Y-98593553D01*
X167012797Y-98569842D01*
X166915419Y-98425055D01*
X166780945Y-98177925D01*
X166628682Y-97862436D01*
X166561952Y-97721789D01*
X166372999Y-97364770D01*
X166183537Y-97055022D01*
X166026018Y-96847216D01*
X165966495Y-96788070D01*
X165679714Y-96603330D01*
X165403098Y-96573820D01*
X165161544Y-96696641D01*
X164979946Y-96968899D01*
X164942926Y-97092630D01*
X164934605Y-97248833D01*
X162314875Y-97248833D01*
X162169410Y-97198450D01*
X161896771Y-97254774D01*
X161836660Y-97303058D01*
X161698131Y-97484661D01*
X161566663Y-97730083D01*
X161470483Y-98065394D01*
X161412134Y-98539040D01*
X161393710Y-99114433D01*
X159617340Y-99114433D01*
X159321705Y-98852042D01*
X159232805Y-98794763D01*
X158987948Y-98668113D01*
X158738713Y-98608953D01*
X158403314Y-98594333D01*
X158267832Y-98595739D01*
X157991527Y-98619143D01*
X157795633Y-98685145D01*
X157615973Y-98811442D01*
X157501204Y-98924351D01*
X157311700Y-99230170D01*
X157236739Y-99559250D01*
X156197884Y-99559250D01*
X156191334Y-99546886D01*
X156053329Y-99445318D01*
X156014980Y-99433298D01*
X155762685Y-99446346D01*
X155612651Y-99531042D01*
X155513124Y-99587226D01*
X155318006Y-99828957D01*
X155260832Y-100012277D01*
X155220771Y-100338045D01*
X155210031Y-100737037D01*
X155229699Y-101158808D01*
X155280862Y-101552911D01*
X155334831Y-101844488D01*
X154798749Y-101378288D01*
X154735831Y-101323691D01*
X154384110Y-101026019D01*
X154123216Y-100824931D01*
X153925482Y-100702943D01*
X153763242Y-100642572D01*
X153608828Y-100626333D01*
X153435104Y-100657392D01*
X153363917Y-100774500D01*
X153359733Y-100917153D01*
X149927079Y-100917153D01*
X149899490Y-100903274D01*
X149539642Y-100864192D01*
X149185773Y-100968065D01*
X148860308Y-101224178D01*
X148711399Y-101436626D01*
X148704671Y-101459240D01*
X148637258Y-101685810D01*
X148670459Y-101890884D01*
X148794679Y-102021868D01*
X148993599Y-102048783D01*
X149250898Y-101941650D01*
X149364462Y-101884614D01*
X149622327Y-101870740D01*
X149856004Y-102005101D01*
X150033429Y-102274075D01*
X150134234Y-102667305D01*
X150151700Y-103131355D01*
X150092412Y-103614286D01*
X149965523Y-104070251D01*
X149780184Y-104453402D01*
X149545550Y-104717894D01*
X149428541Y-104797134D01*
X149294741Y-104843773D01*
X149120416Y-104834754D01*
X148844299Y-104775072D01*
X148813355Y-104767749D01*
X148494968Y-104714398D01*
X148302570Y-104745453D01*
X148209853Y-104874620D01*
X148190508Y-105115599D01*
X147289456Y-105115599D01*
X147318039Y-105046300D01*
X147379701Y-104789334D01*
X147441908Y-104439330D01*
X147496763Y-104035379D01*
X147541514Y-103661376D01*
X147589167Y-103286333D01*
X147629306Y-102994200D01*
X147656292Y-102827667D01*
X147691399Y-102637561D01*
X147745255Y-102246729D01*
X147783382Y-101838589D01*
X147802851Y-101459240D01*
X147800738Y-101154786D01*
X147774117Y-100971326D01*
X147660949Y-100761677D01*
X147487981Y-100612990D01*
X147308639Y-100600075D01*
X147220877Y-100672053D01*
X147181121Y-100704659D01*
X147034696Y-100974686D01*
X146903393Y-101386481D01*
X146790933Y-101924947D01*
X146701040Y-102574989D01*
X146637437Y-103321511D01*
X146626786Y-103484245D01*
X146593867Y-103872981D01*
X146556084Y-104126606D01*
X146508577Y-104270826D01*
X146446485Y-104331352D01*
X146407676Y-104338225D01*
X146215485Y-104331164D01*
X145923125Y-104294137D01*
X145576846Y-104232406D01*
X145377584Y-104194811D01*
X144964905Y-104144919D01*
X144687955Y-104165151D01*
X144532340Y-104258057D01*
X144483667Y-104426190D01*
X139616976Y-104426190D01*
X138493976Y-103707502D01*
X136767646Y-102481678D01*
X135461517Y-101468551D01*
X138472333Y-101468551D01*
X138532386Y-101767111D01*
X138741808Y-102111173D01*
X139082059Y-102429302D01*
X139532928Y-102698068D01*
X139749780Y-102786318D01*
X140078139Y-102875268D01*
X140377209Y-102910865D01*
X140604629Y-102889234D01*
X140718040Y-102806500D01*
X140718676Y-102804743D01*
X140756271Y-102686724D01*
X140811566Y-102506597D01*
X141860860Y-102506597D01*
X141870702Y-102763973D01*
X141957942Y-103281668D01*
X142129123Y-103687264D01*
X142376677Y-103959448D01*
X142404311Y-103977118D01*
X142674882Y-104066695D01*
X143026899Y-104092290D01*
X143394415Y-104054231D01*
X143711483Y-103952844D01*
X143947689Y-103800171D01*
X144171477Y-103557905D01*
X144372997Y-103214545D01*
X144565224Y-102747619D01*
X144761132Y-102134654D01*
X144802364Y-101992096D01*
X144957269Y-101424454D01*
X145054873Y-100991122D01*
X145096628Y-100672053D01*
X145083986Y-100447200D01*
X145018400Y-100296519D01*
X144901323Y-100199961D01*
X144822690Y-100165509D01*
X144624920Y-100164484D01*
X144452045Y-100308896D01*
X144297204Y-100606693D01*
X144153533Y-101065822D01*
X144102246Y-101263477D01*
X143932500Y-101904841D01*
X143792407Y-102402772D01*
X143674539Y-102774108D01*
X143571467Y-103035686D01*
X143475764Y-103204344D01*
X143380003Y-103296919D01*
X143276755Y-103330249D01*
X143158593Y-103321171D01*
X143047669Y-103273567D01*
X142904523Y-103072405D01*
X142831347Y-102728690D01*
X142828535Y-102250057D01*
X142896476Y-101644141D01*
X143035562Y-100918577D01*
X143053454Y-100835248D01*
X143111128Y-100501027D01*
X143136941Y-100228587D01*
X143125491Y-100068971D01*
X143040946Y-99905339D01*
X142866499Y-99769254D01*
X142665074Y-99779997D01*
X142462541Y-99932829D01*
X142284765Y-100223010D01*
X142236533Y-100341738D01*
X142089140Y-100821383D01*
X141969362Y-101385360D01*
X141889251Y-101968741D01*
X141860860Y-102506597D01*
X140811566Y-102506597D01*
X140833607Y-102434796D01*
X140942450Y-102076086D01*
X141074567Y-101637723D01*
X141221725Y-101146838D01*
X141304285Y-100868543D01*
X141451251Y-100354550D01*
X141550079Y-99973119D01*
X141605010Y-99705024D01*
X141620288Y-99531042D01*
X141600155Y-99431947D01*
X141578850Y-99400625D01*
X141411237Y-99256516D01*
X141140321Y-99089590D01*
X140811678Y-98923450D01*
X140470887Y-98781700D01*
X140163524Y-98687945D01*
X140098153Y-98674503D01*
X139704426Y-98662093D01*
X139405256Y-98789537D01*
X139198850Y-99057523D01*
X139100200Y-99312222D01*
X139075145Y-99601008D01*
X139157544Y-99935203D01*
X139171354Y-99975722D01*
X139205110Y-100141849D01*
X139151269Y-100267845D01*
X138985170Y-100423589D01*
X138772241Y-100634297D01*
X138545920Y-101021335D01*
X138472333Y-101468551D01*
X135461517Y-101468551D01*
X134984287Y-101098377D01*
X133142881Y-99556988D01*
X132969476Y-99405498D01*
X132654291Y-99122938D01*
X132400884Y-98886111D01*
X132231708Y-98716284D01*
X132169214Y-98634723D01*
X132175182Y-98626791D01*
X132300789Y-98599756D01*
X132580096Y-98575862D01*
X133000865Y-98555740D01*
X133550857Y-98540019D01*
X134217833Y-98529328D01*
X134633903Y-98523627D01*
X135161877Y-98512901D01*
X135612591Y-98499663D01*
X135963029Y-98484765D01*
X136190171Y-98469058D01*
X136271000Y-98453394D01*
X136257111Y-98417215D01*
X136177891Y-98249620D01*
X136037972Y-97966482D01*
X135848189Y-97589428D01*
X135619379Y-97140084D01*
X135362379Y-96640076D01*
X135203776Y-96329841D01*
X134968705Y-95857566D01*
X134772740Y-95448150D01*
X134625900Y-95123298D01*
X134538202Y-94904718D01*
X134519664Y-94814114D01*
X134615653Y-94818110D01*
X134813655Y-94894154D01*
X135068452Y-95026423D01*
X135450789Y-95237757D01*
X136101558Y-95571382D01*
X136832376Y-95922383D01*
X137596011Y-96268899D01*
X138345230Y-96589075D01*
X139032802Y-96861050D01*
X139480666Y-97025294D01*
X141466964Y-97658918D01*
X143424309Y-98126534D01*
X145354927Y-98428418D01*
X147261042Y-98564844D01*
X149144880Y-98536089D01*
X151008666Y-98342426D01*
X151505483Y-98262577D01*
X152506169Y-98061000D01*
X153488694Y-97802520D01*
X154490976Y-97475324D01*
X155550936Y-97067602D01*
X156706491Y-96567540D01*
X158034897Y-95986484D01*
X159699446Y-95322421D01*
X161266328Y-94775902D01*
X162746551Y-94344147D01*
X164151122Y-94024375D01*
X165491049Y-93813804D01*
X166777339Y-93709655D01*
X168021000Y-93709146D01*
X168023349Y-93709242D01*
X168865997Y-93764444D01*
X169591928Y-93860165D01*
X170250596Y-94004992D01*
X170891455Y-94207511D01*
X171433576Y-94403333D01*
X171932387Y-95503230D01*
X172007706Y-95670071D01*
X172544663Y-96904414D01*
X173050765Y-98145490D01*
X173514784Y-99362898D01*
X173925491Y-100526235D01*
X174023552Y-100831852D01*
X174271657Y-101605101D01*
G37*
%TD*%
M02*
